<svg xmlns="http://www.w3.org/2000/svg" width="28" height="13" viewBox="0 0 28 13" fill="none"><path d="M21.3375 0.00341291C18.7938 0.00341291 16.1034 1.61173 16.1034 3.12786C16.1034 4.08141 16.8991 4.85378 17.8775 4.85696C19.2928 4.85696 19.3026 3.4616 21.3375 3.4616C23.0594 3.4616 24.4552 4.82199 24.4552 6.50023C24.4552 8.17847 23.0594 9.53886 21.3375 9.53886C20.5125 9.53886 19.72 9.21784 19.1363 8.64889C19.1265 8.63935 19.1754 8.68067 11.3422 1.86918C7.15164 -2.14524 0 0.728108 0 6.50023C0.00326112 10.0856 2.98393 12.9907 6.66247 12.9971C9.20615 12.9971 11.8933 11.3919 11.8933 9.87261C11.8933 8.91906 11.0976 8.14669 10.1193 8.14351C8.70394 8.14351 8.69415 9.53886 6.65921 9.53886C4.93734 9.53886 3.54158 8.17847 3.54158 6.50023C3.54158 4.82199 4.93734 3.4616 6.65921 3.4616C7.48428 3.4616 8.27673 3.78263 8.86047 4.35158L8.87025 4.36111L16.6546 11.1313C20.8451 15.1521 27.9902 12.266 27.9902 6.50023C27.9967 2.9149 25.0161 0.00976988 21.3375 0.00341291Z" fill="url(#paint0_linear_295_217)"></path><defs><linearGradient id="paint0_linear_295_217" x1="14.899" y1="11.2964" x2="-0.938315" y2="8.77031" gradientUnits="userSpaceOnUse"><stop offset="0.049435" stop-color="#124EC6"></stop><stop offset="1" stop-color="#61E9EE"></stop></linearGradient></defs></svg>