<svg xmlns="http://www.w3.org/2000/svg" width="14" height="19" viewBox="0 0 14 19" fill="none"><g clip-path="url(#clip0_1_64)"><path fill-rule="evenodd" clip-rule="evenodd" d="M13.4633 6.74165C13.4633 6.82997 13.4614 6.91866 13.4575 7.00698V7.00958H11.6116C11.4641 7.00958 11.3446 7.12462 11.3446 7.26675C11.3446 7.30275 11.3527 7.33874 11.3678 7.37177C11.3851 7.42038 11.3982 7.47011 11.4074 7.52058C11.5057 8.06126 11.13 8.57671 10.5687 8.67134C10.0073 8.76597 9.47217 8.40415 9.37392 7.86347C9.3535 7.74991 9.3535 7.63413 9.37392 7.52058C9.38394 7.46343 9.39935 7.40739 9.41938 7.35321C9.46831 7.22036 9.39742 7.07415 9.25988 7.02517C9.23098 7.01478 9.20016 7.00921 9.16895 7.00958H7.26566V5.50071H7.26874C7.32653 5.50628 7.38471 5.50888 7.44288 5.50888C8.30784 5.50888 9.00906 4.83349 9.00906 4.00038C9.00906 3.16728 8.30784 2.49189 7.44288 2.49189C7.38509 2.49151 7.32692 2.49485 7.26951 2.50265H7.26643V0.522491H7.26951C10.7317 0.660909 13.4641 3.40478 13.4633 6.74202V6.74165Z" fill="#124EC6"></path><path fill-rule="evenodd" clip-rule="evenodd" d="M6.73397 7.52355V9.03205H6.73088C6.67309 9.02648 6.61491 9.02389 6.55674 9.02389C5.69178 9.02797 4.99403 9.7067 4.99827 10.5398C5.00251 11.367 5.69756 12.0368 6.55674 12.0409C6.61491 12.0409 6.67309 12.0357 6.73088 12.0301H6.73397V14.0715H3.57542V13.2707C3.58428 12.5504 3.26411 11.8631 2.70006 11.3904C2.0185 10.8055 1.47294 10.0889 1.09844 9.28736C0.838378 8.72813 0.666156 8.13437 0.587173 7.52615V7.52318H2.38798C2.41881 7.52318 2.44963 7.51799 2.47852 7.5076C2.61568 7.45861 2.68696 7.3124 2.63803 7.17955C2.61761 7.125 2.60258 7.06897 2.59257 7.01219C2.58217 6.95504 2.57716 6.89715 2.57754 6.83926C2.57754 6.29041 3.03911 5.8451 3.60894 5.84473C4.17877 5.84473 4.64111 6.2893 4.6415 6.83814V6.83926C4.6415 6.89715 4.63649 6.95504 4.62647 7.01219C4.61761 7.06266 4.60451 7.11275 4.58717 7.161C4.52745 7.29125 4.58833 7.4434 4.72356 7.50129C4.75747 7.51576 4.79407 7.52318 4.83144 7.52318H6.73474L6.73397 7.52355Z" fill="url(#paint0_linear_1_64)"></path><path fill-rule="evenodd" clip-rule="evenodd" d="M9.27336 16.5504C9.36621 16.5504 9.45868 16.543 9.55038 16.5292L9.55423 16.5285V16.5322C9.37777 17.6507 8.38143 18.4786 7.20709 18.4831H6.79214C5.61742 18.479 4.62146 17.6507 4.44539 16.5322V16.5285L4.44886 16.5292C4.54055 16.543 4.63302 16.55 4.72549 16.5504H9.27336Z" fill="url(#paint1_linear_1_64)"></path><path fill-rule="evenodd" clip-rule="evenodd" d="M10.4211 14.5888H3.57807V14.928C3.57807 15.5384 4.09204 16.0331 4.72544 16.0335H9.27331C9.9071 16.0335 10.4211 15.5384 10.4211 14.928V14.5888ZM9.55072 16.5319C9.45902 16.5456 9.36617 16.5526 9.27331 16.553H4.72544C4.63259 16.553 4.54012 16.5456 4.44843 16.5319C4.62411 17.6492 5.6193 18.476 6.79248 18.4805H7.20743C8.38062 18.4764 9.37541 17.6492 9.55149 16.5319H9.55072ZM7.26831 7.00662H9.16852C9.31762 7.00699 9.43783 7.12389 9.43706 7.2675C9.43706 7.29719 9.43167 7.32613 9.42126 7.35397C9.40161 7.40852 9.3862 7.46418 9.3758 7.52096C9.27871 8.06053 9.65397 8.57338 10.2138 8.6669C10.774 8.76041 11.3064 8.39897 11.4035 7.85977C11.4236 7.7477 11.4236 7.63303 11.4035 7.52096C11.3947 7.47049 11.3812 7.42076 11.3642 7.37252C11.3492 7.33912 11.3415 7.30313 11.3411 7.26639C11.3411 7.12315 11.4621 7.00662 11.6108 7.00662H13.454C13.4579 6.91904 13.4598 6.83184 13.4598 6.74166C13.4606 3.4059 10.7293 0.663145 7.26869 0.525098V2.50006C7.3261 2.49264 7.38428 2.48893 7.44245 2.4893C8.30895 2.4893 9.01132 3.1658 9.01171 4.00002C9.01171 4.83461 8.30934 5.51111 7.44322 5.51149H7.44284C7.38428 5.51149 7.32571 5.50889 7.26831 5.50369V7.00662ZM0.544361 7.00662C0.540893 6.91904 0.538582 6.83184 0.538582 6.74166C0.537811 3.40553 3.26908 0.663145 6.72968 0.525098V2.82365C6.72968 2.96727 6.85066 3.08342 6.99976 3.08342C7.03714 3.08342 7.07412 3.076 7.1088 3.06227C7.15927 3.04557 7.2109 3.03295 7.26368 3.02516C7.32263 3.01439 7.38273 3.0092 7.44284 3.0092C8.01151 3.00586 8.47501 3.44709 8.47848 3.99445C8.48194 4.54219 8.02384 4.98861 7.45555 4.99195C7.45131 4.99195 7.44708 4.99195 7.44284 4.99195C7.38273 4.99195 7.32302 4.98713 7.26368 4.97859C7.20512 4.9682 7.14733 4.95299 7.09108 4.93369C6.95122 4.88545 6.79711 4.95559 6.74663 5.08992C6.7343 5.12221 6.72891 5.15635 6.73084 5.19049V7.00625H5.16813C5.17468 6.95096 5.17776 6.89492 5.17776 6.83926C5.17776 6.00467 4.4754 5.32816 3.6089 5.32816C2.7424 5.32816 2.04003 6.00467 2.04003 6.83926C2.04003 6.89492 2.04311 6.95096 2.04966 7.00625H0.544361V7.00662ZM6.73084 7.52615H4.83063C4.68114 7.52578 4.56054 7.40889 4.56093 7.2649C4.56093 7.22891 4.56902 7.19328 4.58404 7.16025C4.60138 7.11201 4.61448 7.06229 4.62334 7.01182C4.63336 6.95504 4.63837 6.89715 4.63837 6.83963C4.63837 6.29227 4.17757 5.84844 3.60928 5.84844C3.04099 5.84844 2.58019 6.29227 2.58019 6.83963C2.58019 6.89752 2.5852 6.95504 2.59522 7.01182C2.60562 7.06859 2.62103 7.12426 2.64068 7.17881C2.69077 7.31389 2.61795 7.4627 2.47771 7.51094C2.44881 7.52096 2.41876 7.52615 2.38794 7.52615H0.589439C0.668422 8.134 0.840643 8.72738 1.10071 9.28625C1.4752 10.0874 2.02076 10.8037 2.70156 11.3885C3.26638 11.8616 3.58693 12.5496 3.57807 13.2707V14.0685H6.73084V12.0327C6.67343 12.0379 6.61487 12.0435 6.5563 12.0435C5.6898 12.0394 4.9909 11.3596 4.99514 10.525C4.99938 9.69631 5.69597 9.02537 6.5563 9.02129C6.61487 9.02129 6.67343 9.02389 6.73084 9.02908V7.52578V7.52615ZM13.4097 7.52615C13.3311 8.134 13.1589 8.72738 12.8984 9.28625C12.5239 10.0874 11.9788 10.8037 11.2976 11.3885C10.7328 11.8616 10.4122 12.5496 10.4211 13.2707V14.0685H7.26831V11.7195C7.27524 11.5774 7.16197 11.4564 7.0144 11.4494C6.97819 11.4475 6.94197 11.4531 6.90807 11.4653C6.85182 11.4842 6.79441 11.4983 6.73585 11.5076C6.6769 11.5184 6.61679 11.5236 6.55669 11.5236C5.98801 11.5236 5.52722 11.0797 5.52722 10.532C5.52722 9.98428 5.98801 9.54045 6.55669 9.54045C6.61679 9.54045 6.67651 9.54527 6.73585 9.55381C6.79441 9.5642 6.8522 9.57904 6.90807 9.59871C6.93735 9.60947 6.96856 9.61467 6.99976 9.61467C7.14848 9.6143 7.26831 9.49815 7.26792 9.3549V7.52578H8.83062C8.82446 7.58108 8.82099 7.63711 8.82099 7.69277C8.82099 8.52736 9.52259 9.20387 10.3891 9.20424C11.2556 9.20424 11.958 8.52848 11.9583 7.69389V7.69277C11.9583 7.63711 11.9553 7.58108 11.9491 7.52578H13.4097V7.52615ZM6.99976 1.36855e-07C10.8653 -0.000742051 13.9996 3.01736 14.0003 6.74055C14.0003 8.6643 13.1477 10.4964 11.6563 11.7759C11.204 12.1492 10.9489 12.6977 10.9609 13.2711V14.928C10.9609 15.3588 10.7829 15.7719 10.4658 16.0758C10.3614 16.1786 10.2423 16.2669 10.1125 16.3381C10.0316 17.8277 8.75588 18.9963 7.20705 18.9996H6.7921C5.24365 18.9963 3.96759 17.8277 3.88707 16.3381C3.75761 16.2658 3.63895 16.1778 3.53338 16.0758C3.21629 15.7719 3.03829 15.3588 3.03829 14.928V13.2711C3.05024 12.6977 2.79518 12.1492 2.34324 11.7759C-0.542906 9.29887 -0.798348 5.03723 1.77341 2.25699C3.10148 0.821231 5.00323 1.36855e-07 6.99976 1.36855e-07Z" fill="url(#paint2_linear_1_64)"></path></g><defs><linearGradient id="paint0_linear_1_64" x1="11.308" y1="9.5" x2="7.82688" y2="12.8564" gradientUnits="userSpaceOnUse"><stop stop-color="#124EC6"></stop><stop offset="1" stop-color="#61E9EE"></stop></linearGradient><linearGradient id="paint1_linear_1_64" x1="7.16478" y1="18.2267" x2="4.30772" y2="17.6735" gradientUnits="userSpaceOnUse"><stop offset="0.049435" stop-color="#124EC6"></stop><stop offset="1" stop-color="#61E9EE"></stop></linearGradient><linearGradient id="paint2_linear_1_64" x1="7.45223" y1="16.5079" x2="-0.646809" y2="16.0657" gradientUnits="userSpaceOnUse"><stop offset="0.049435" stop-color="#124EC6"></stop><stop offset="1" stop-color="#61E9EE"></stop></linearGradient><clipPath id="clip0_1_64"><rect width="14" height="19" fill="white"></rect></clipPath></defs></svg>