<svg xmlns="http://www.w3.org/2000/svg" width="20" height="20" viewBox="0 0 20 20" fill="none"><g clip-path="url(#clip0_295_157)"><path d="M6.71112 0H13.2889C14.0617 0.00493766 14.6889 0.632021 14.6914 1.40476V7.98173C14.6864 8.75447 14.0617 9.37662 13.2889 9.38156H6.71112C5.93828 9.37662 5.31359 8.75447 5.30865 7.98173V1.40476C5.30865 0.629552 5.93582 0.00246883 6.71112 0Z" fill="url(#paint0_linear_295_157)"></path><path d="M1.40988 10.616H7.98765C8.76543 10.616 9.39753 11.248 9.39753 12.0257V18.5928C9.39753 19.3704 8.7679 20 7.99012 20H1.40741C0.62963 20 0 19.3704 0 18.5928V12.0158C0.00493827 11.2406 0.634568 10.616 1.40988 10.616Z" fill="url(#paint1_linear_295_157)"></path><path d="M12.0124 10.616H18.5901C19.3679 10.616 20 11.248 20 12.0257V18.5928C20 19.368 19.3679 19.9975 18.5926 19.9975H12.0124C11.2346 19.9975 10.6049 19.368 10.6049 18.5903V12.0158C10.6099 11.243 11.2395 10.6184 12.0124 10.616Z" fill="url(#paint2_linear_295_157)"></path></g><defs><linearGradient id="paint0_linear_295_157" x1="22.0001" y1="9" x2="12.6275" y2="13.7254" gradientUnits="userSpaceOnUse"><stop offset="0.049435" stop-color="#124EC6"></stop><stop offset="1" stop-color="#61E9EE"></stop></linearGradient><linearGradient id="paint1_linear_295_157" x1="15" y1="22.4998" x2="-2.70169" y2="25.683" gradientUnits="userSpaceOnUse"><stop offset="0.049435" stop-color="#124EC6"></stop><stop offset="1" stop-color="#61E9EE"></stop></linearGradient><linearGradient id="paint2_linear_295_157" x1="15.6059" y1="18.7672" x2="10.1846" y2="18.3649" gradientUnits="userSpaceOnUse"><stop offset="0.049435" stop-color="#124EC6"></stop><stop offset="1" stop-color="#61E9EE"></stop></linearGradient><clipPath id="clip0_295_157"><rect width="20" height="20" fill="white"></rect></clipPath></defs></svg>